<svg width="21" height="21" viewBox="0 0 21 21" fill="none" xmlns="http://www.w3.org/2000/svg">
<path d="M3.0625 6.475C3.0625 6.25668 3.1055 6.04049 3.18905 5.83879C3.2726 5.63709 3.39506 5.45381 3.54943 5.29943C3.86121 4.98766 4.28408 4.8125 4.725 4.8125H7.7L9.3625 6.65H16.275C16.7159 6.65 17.1388 6.82516 17.4506 7.13693C17.7623 7.44871 17.9375 7.87158 17.9375 8.3125V14.525C17.9375 14.9659 17.7623 15.3888 17.4506 15.7006C17.1388 16.0123 16.7159 16.1875 16.275 16.1875H4.725C4.28408 16.1875 3.86121 16.0123 3.54943 15.7006C3.23766 15.3888 3.0625 14.9659 3.0625 14.525V6.475Z" stroke="#79808D" stroke-width="1.4" stroke-linejoin="round"/>
</svg>
