<svg width="145" height="163" viewBox="0 0 145 163" fill="none" xmlns="http://www.w3.org/2000/svg">
<g opacity="0.977957">
<path d="M30.2344 6H114.234C117.152 6 119.95 7.15893 122.013 9.22183C124.075 11.2847 125.234 14.0826 125.234 17V61C125.234 63.9174 124.075 66.7153 122.013 68.7782C119.95 70.8411 117.152 72 114.234 72H63.2344L41.2344 92L43.6344 72H30.2344C27.317 72 24.5191 70.8411 22.4562 68.7782C20.3933 66.7153 19.2344 63.9174 19.2344 61V17C19.2344 14.0826 20.3933 11.2847 22.4562 9.22183C24.5191 7.15893 27.317 6 30.2344 6Z" fill="white"/>
<path d="M72.3008 49.332C70.6628 49.332 69.1797 49.0277 67.8516 48.4189C66.5234 47.8102 65.4775 46.9635 64.7139 45.8789C63.9613 44.7943 63.5684 43.5768 63.5352 42.2266H68.3662C68.4215 42.8464 68.6263 43.3942 68.9805 43.8701C69.3457 44.346 69.8161 44.7223 70.3916 44.999C70.9782 45.2646 71.6146 45.3975 72.3008 45.3975C73.1198 45.3975 73.8503 45.2148 74.4922 44.8496C75.1452 44.4844 75.6543 43.9808 76.0195 43.3389C76.3848 42.6859 76.5674 41.9499 76.5674 41.1309C76.5674 40.2786 76.3792 39.5316 76.0029 38.8896C75.6377 38.2367 75.123 37.7275 74.459 37.3623C73.806 36.986 73.0589 36.7979 72.2178 36.7979C71.3213 36.7868 70.5632 36.9473 69.9434 37.2793C69.3236 37.6113 68.8311 38.1204 68.4658 38.8066H63.9336L65.2451 24.9609H80.0371V29.0615H69.3623L68.6982 35.1211H68.8809C69.3457 34.5124 70.0098 34.0199 70.873 33.6436C71.7363 33.2673 72.6826 33.0791 73.7119 33.0791C75.1618 33.0791 76.4733 33.4167 77.6465 34.0918C78.8307 34.7559 79.7493 35.6911 80.4023 36.8975C81.0664 38.1038 81.3929 39.4707 81.3818 40.998C81.3929 42.5918 81.0111 44.0251 80.2363 45.2979C79.4727 46.5596 78.4046 47.5501 77.0322 48.2695C75.6598 48.9779 74.0827 49.332 72.3008 49.332Z" fill="#3559C7"/>
<path d="M2.15234 134.85H7.38477V138.375H7.60742C8.05273 137.175 8.764 136.247 9.74121 135.592C10.7184 134.924 11.8812 134.59 13.2295 134.59C14.1325 134.59 14.9551 134.744 15.6973 135.054C16.4518 135.351 17.0827 135.784 17.5898 136.353C18.097 136.922 18.4681 137.596 18.7031 138.375H18.8887C19.1855 137.608 19.6247 136.94 20.2061 136.371C20.7874 135.802 21.4863 135.363 22.3027 135.054C23.1191 134.744 24.0098 134.59 24.9746 134.59C26.2363 134.59 27.3434 134.862 28.2959 135.406C29.2607 135.938 30.0091 136.724 30.541 137.763C31.0729 138.789 31.3389 140.026 31.3389 141.474V155H25.8281V142.513C25.8281 141.412 25.5374 140.577 24.9561 140.008C24.3747 139.426 23.6139 139.136 22.6738 139.136C21.9935 139.136 21.4059 139.284 20.9111 139.581C20.4287 139.866 20.0514 140.274 19.7793 140.806C19.5195 141.325 19.3896 141.944 19.3896 142.661V155H14.0645V142.364C14.0645 141.721 13.9346 141.152 13.6748 140.657C13.4274 140.162 13.0687 139.785 12.5986 139.525C12.1286 139.266 11.5843 139.136 10.9658 139.136C10.3473 139.136 9.78451 139.29 9.27734 139.6C8.78255 139.896 8.38672 140.329 8.08984 140.898C7.79297 141.467 7.64453 142.129 7.64453 142.884V155H2.15234V134.85ZM45.4701 146.298C44.9753 146.31 44.1033 146.36 42.8539 146.446L41.0727 146.595C40.0954 146.669 39.3285 146.935 38.7719 147.393C38.2152 147.838 37.9369 148.444 37.9369 149.211C37.9369 149.706 38.0606 150.126 38.308 150.473C38.5678 150.819 38.9265 151.085 39.3842 151.271C39.8542 151.456 40.3799 151.549 40.9613 151.549C41.7901 151.549 42.5261 151.388 43.1693 151.066C43.8126 150.732 44.3135 150.281 44.6723 149.712C45.031 149.131 45.2104 148.493 45.2104 147.801L45.1732 141.288C45.1732 140.719 45.0495 140.237 44.8021 139.841C44.5671 139.433 44.2022 139.13 43.7074 138.932C43.225 138.721 42.6498 138.616 41.9818 138.616C41.0541 138.616 40.2995 138.814 39.7182 139.21C39.1368 139.593 38.7719 140.138 38.6234 140.843H33.391C33.5147 139.655 33.9291 138.591 34.6342 137.651C35.3516 136.699 36.3412 135.951 37.6029 135.406C38.877 134.862 40.3799 134.59 42.1117 134.59C43.6703 134.59 45.0928 134.831 46.3793 135.313C47.6658 135.796 48.6986 136.55 49.4779 137.577C50.2696 138.591 50.6654 139.872 50.6654 141.418V155H45.4516V152.217H45.3031C44.9691 152.848 44.53 153.398 43.9857 153.868C43.4415 154.338 42.7859 154.709 42.0189 154.981C41.2644 155.241 40.3861 155.371 39.3842 155.371C38.0854 155.371 36.935 155.142 35.933 154.685C34.9311 154.227 34.1394 153.547 33.558 152.644C32.9766 151.741 32.6859 150.652 32.6859 149.378C32.6859 147.275 33.3786 145.747 34.7641 144.795C36.1618 143.842 37.9678 143.298 40.182 143.162C40.5531 143.125 41.6973 143.063 43.6146 142.977L45.433 142.902L45.4701 146.298ZM55.4266 162.57C54.3504 162.57 53.4227 162.539 52.6434 162.478V158.191L53.5711 158.247C53.9422 158.259 54.3751 158.266 54.8699 158.266C55.3152 158.266 55.6863 158.229 55.9832 158.154C56.2801 158.08 56.5584 157.907 56.8182 157.635C57.0779 157.363 57.3068 156.954 57.5047 156.41L57.8387 155.575L50.5838 134.85H56.3729L60.6033 149.693H60.826L65.075 134.85H70.9012L63.034 157.208C62.4279 158.915 61.5187 160.232 60.3064 161.16C59.0942 162.1 57.4676 162.57 55.4266 162.57ZM78.427 155.315C76.8807 155.315 75.4829 154.913 74.2336 154.109C72.9966 153.305 72.0194 152.124 71.302 150.565C70.5969 148.994 70.2443 147.12 70.2443 144.943C70.2443 142.717 70.6092 140.824 71.3391 139.266C72.0689 137.707 73.0461 136.538 74.2707 135.759C75.5077 134.979 76.8931 134.59 78.427 134.59C79.4908 134.59 80.4061 134.769 81.173 135.128C81.94 135.474 82.5461 135.907 82.9914 136.427C83.4367 136.946 83.8202 137.546 84.1418 138.227H84.3088V128.133H89.801V155H84.4016V151.79H84.1418C83.8078 152.458 83.412 153.039 82.9543 153.534C82.509 154.029 81.9029 154.45 81.1359 154.796C80.369 155.142 79.466 155.315 78.427 155.315ZM80.134 150.937C81.037 150.937 81.8101 150.689 82.4533 150.194C83.1089 149.7 83.6037 148.994 83.9377 148.079C84.2841 147.164 84.4572 146.106 84.4572 144.906C84.4572 143.694 84.2902 142.643 83.9563 141.752C83.6223 140.861 83.1275 140.181 82.4719 139.711C81.8286 139.229 81.0494 138.987 80.134 138.987C79.2186 138.987 78.4393 139.235 77.7961 139.729C77.1529 140.212 76.6643 140.898 76.3303 141.789C76.0087 142.68 75.8479 143.719 75.8479 144.906C75.8479 146.094 76.0087 147.145 76.3303 148.061C76.6643 148.964 77.1529 149.669 77.7961 150.176C78.4393 150.683 79.2186 150.937 80.134 150.937ZM104.155 146.298C103.66 146.31 102.788 146.36 101.539 146.446L99.7574 146.595C98.7802 146.669 98.0133 146.935 97.4566 147.393C96.9 147.838 96.6217 148.444 96.6217 149.211C96.6217 149.706 96.7454 150.126 96.9928 150.473C97.2525 150.819 97.6113 151.085 98.0689 151.271C98.539 151.456 99.0647 151.549 99.6461 151.549C100.475 151.549 101.211 151.388 101.854 151.066C102.497 150.732 102.998 150.281 103.357 149.712C103.716 149.131 103.895 148.493 103.895 147.801L103.858 141.288C103.858 140.719 103.734 140.237 103.487 139.841C103.252 139.433 102.887 139.13 102.392 138.932C101.91 138.721 101.335 138.616 100.667 138.616C99.7389 138.616 98.9843 138.814 98.4029 139.21C97.8216 139.593 97.4566 140.138 97.3082 140.843H92.0758C92.1995 139.655 92.6139 138.591 93.3189 137.651C94.0364 136.699 95.026 135.951 96.2877 135.406C97.5618 134.862 99.0647 134.59 100.796 134.59C102.355 134.59 103.778 134.831 105.064 135.313C106.351 135.796 107.383 136.55 108.163 137.577C108.954 138.591 109.35 139.872 109.35 141.418V155H104.136V152.217H103.988C103.654 152.848 103.215 153.398 102.671 153.868C102.126 154.338 101.471 154.709 100.704 154.981C99.9492 155.241 99.0709 155.371 98.0689 155.371C96.7701 155.371 95.6197 155.142 94.6178 154.685C93.6158 154.227 92.8242 153.547 92.2428 152.644C91.6614 151.741 91.3707 150.652 91.3707 149.378C91.3707 147.275 92.0634 145.747 93.4488 144.795C94.8466 143.842 96.6526 143.298 98.8668 143.162C99.2379 143.125 100.382 143.063 102.299 142.977L104.118 142.902L104.155 146.298ZM114.111 162.57C113.035 162.57 112.107 162.539 111.328 162.478V158.191L112.256 158.247C112.627 158.259 113.06 158.266 113.555 158.266C114 158.266 114.371 158.229 114.668 158.154C114.965 158.08 115.243 157.907 115.503 157.635C115.763 157.363 115.992 156.954 116.189 156.41L116.523 155.575L109.269 134.85H115.058L119.288 149.693H119.511L123.76 134.85H129.586L121.719 157.208C121.113 158.915 120.203 160.232 118.991 161.16C117.779 162.1 116.152 162.57 114.111 162.57Z" fill="white"/>
<rect x="135.469" y="146" width="9" height="9" rx="4.5" fill="white" fill-opacity="0.62"/>
</g>
</svg>
